<svg width="30" height="15" viewBox="0 0 30 15" fill="none" xmlns="http://www.w3.org/2000/svg">
<path d="M7.5 -1.16224e-06C6.01664 -1.30961e-06 4.56659 0.439866 3.33322 1.26398C2.09985 2.08809 1.13856 3.25943 0.570903 4.62987C0.00324597 6.00032 -0.145279 7.50832 0.14411 8.96318C0.433499 10.418 1.14781 11.7544 2.1967 12.8033C3.24559 13.8522 4.58196 14.5665 6.03682 14.8559C7.49168 15.1453 8.99968 14.9968 10.3701 14.4291C11.7406 13.8614 12.9119 12.9001 13.736 11.6668C14.5601 10.4334 15 8.98336 15 7.5L7.5 7.5L7.5 -1.16224e-06Z" fill="#272727"/>
<path d="M22.5 15C23.9834 15 25.4334 14.5601 26.6668 13.736C27.9001 12.9119 28.8614 11.7406 29.4291 10.3701C29.9968 8.99968 30.1453 7.49168 29.8559 6.03682C29.5665 4.58197 28.8522 3.24559 27.8033 2.1967C26.7544 1.14781 25.418 0.433499 23.9632 0.14411C22.5083 -0.145279 21.0003 0.00324543 19.6299 0.570903C18.2594 1.13856 17.0881 2.09985 16.264 3.33322C15.4399 4.56659 15 6.01664 15 7.5L22.5 7.5L22.5 15Z" fill="#272727"/>
</svg>
