<svg width="358" height="69" viewBox="0 0 358 69" fill="none" xmlns="http://www.w3.org/2000/svg">
<path d="M20.8534 68.9886C16.7407 68.9886 12.8958 68.3852 9.31114 67.1711C5.73393 65.957 2.62527 64.2352 0 61.9983L5.10172 55.8837C7.56337 57.8189 10.0994 59.298 12.7024 60.3061C15.3128 61.3141 17.9529 61.8218 20.6302 61.8218C24.014 61.8218 26.7584 61.1742 28.8631 59.8718C30.9677 58.5694 32.0238 56.8772 32.0238 54.7875C32.0238 53.073 31.4065 51.7264 30.1794 50.7477C28.9449 49.7691 27.0186 49.0921 24.3859 48.7095L15.7292 47.4881C10.9695 46.7891 7.3998 45.3322 5.02739 43.11C2.65498 40.8878 1.47252 37.9226 1.47252 34.2067C1.47252 31.3959 2.25342 28.9161 3.8152 26.7749C5.38441 24.6337 7.57086 22.9633 10.3821 21.7566C13.1932 20.5572 16.4655 19.9539 20.1989 19.9539C23.6943 19.9539 27.0186 20.4468 30.1868 21.4402C33.355 22.4262 36.3967 23.9568 39.3269 26.0244L34.6267 32.139C31.9791 30.4172 29.4282 29.1589 26.9666 28.3569C24.5124 27.5622 22.0209 27.1575 19.4923 27.1575C16.6291 27.1575 14.3162 27.7608 12.5611 28.9528C10.7985 30.1449 9.92098 31.7049 9.92098 33.6253C9.92098 35.406 10.5308 36.76 11.7579 37.6945C12.985 38.6289 14.993 39.2986 17.7819 39.6959L26.4312 40.9173C31.176 41.5501 34.7606 42.9849 37.2 45.1997C39.6319 47.4219 40.8515 50.3873 40.8515 54.0884C40.8515 56.9066 39.974 59.4452 38.2114 61.7041C36.4488 63.9557 34.0764 65.7362 31.0867 67.0386C28.0896 68.341 24.6835 68.9886 20.8534 68.9886Z" fill="#1D376F"/>
<path d="M66.8294 68.9738C62.2036 68.9738 58.0091 67.8921 54.2311 65.7288C50.4531 63.5655 47.4634 60.6296 45.2695 56.9211C43.0682 53.2126 41.975 49.0625 41.975 44.4784C41.975 39.8796 43.0682 35.7296 45.2621 32.0211C47.4561 28.32 50.4383 25.3767 54.2238 23.2061C58.0018 21.0354 62.1962 19.9539 66.8221 19.9539C71.4851 19.9539 75.6944 21.0354 79.4501 23.2061C83.2058 25.3767 86.1879 28.32 88.3818 32.0211C90.5832 35.7296 91.6839 39.8796 91.6839 44.4784C91.6839 49.0625 90.5833 53.2126 88.3893 56.9211C86.188 60.6296 83.2132 63.5655 79.4649 65.7288C75.7093 67.8921 71.4999 68.9738 66.8294 68.9738ZM66.8294 60.8283C69.7596 60.8283 72.4072 60.0999 74.7796 58.643C77.152 57.1934 79.0335 55.2215 80.4168 52.7491C81.8001 50.2694 82.4918 47.5027 82.4918 44.4344C82.4918 41.3734 81.7927 38.6141 80.402 36.1565C79.0038 33.7062 77.1222 31.7489 74.7572 30.2846C72.3848 28.8277 69.7447 28.0993 66.8294 28.0993C63.9216 28.0993 61.274 28.8277 58.909 30.2846C56.5366 31.7489 54.6551 33.7062 53.2569 36.1565C51.8662 38.6141 51.1671 41.3734 51.1671 44.4344C51.1671 47.5027 51.8588 50.2694 53.242 52.7491C54.6253 55.2215 56.5069 57.1934 58.8867 58.643C61.2666 60.0999 63.9141 60.8283 66.8294 60.8283Z" fill="#1D376F"/>
<path d="M98.633 68.0641V3.14303L108.004 1.34032V68.0641H98.633Z" fill="#1D376F"/>
<path d="M115.539 68.0547V20.8226H124.909V68.0547H115.539ZM120.216 13.1997C118.647 13.1997 117.294 12.6404 116.163 11.5146C115.025 10.3962 114.46 9.04213 114.46 7.46749C114.46 5.89284 115.025 4.54637 116.163 3.45C117.294 2.34628 118.647 1.79437 120.216 1.79437C121.83 1.79437 123.191 2.34622 124.314 3.44259C125.43 4.54632 125.988 5.9004 125.988 7.49713C125.988 9.05706 125.43 10.3962 124.314 11.5146C123.191 12.6404 121.83 13.1997 120.216 13.1997Z" fill="#1D376F"/>
<path d="M132.421 68.055V3.13409L141.792 1.05922V25.6648C145.496 21.8165 150.285 19.8961 156.16 19.8961C159.812 19.8961 163.04 20.676 165.829 22.2359C168.617 23.7958 170.804 25.9591 172.381 28.7331C173.957 31.5071 174.745 34.73 174.745 38.4091V68.055H165.449V39.9911C165.449 36.2678 164.378 33.3246 162.251 31.176C160.117 29.0201 157.217 27.9458 153.535 27.9458C150.984 27.9458 148.716 28.4829 146.745 29.5572C144.767 30.6241 143.116 32.1547 141.792 34.1341V68.055H132.421Z" fill="#1D376F"/>
<path d="M200.022 68.9998C196.37 68.9998 193.135 68.2199 190.317 66.66C187.505 65.1 185.304 62.9221 183.727 60.1333C182.151 57.3446 181.362 54.129 181.362 50.4867V20.8405H190.666V48.9048C190.666 52.6133 191.744 55.5417 193.909 57.705C196.073 59.8683 198.966 60.95 202.588 60.95C205.116 60.95 207.392 60.398 209.407 59.309C211.423 58.2126 213.059 56.6749 214.323 54.6955V20.8405H223.694V68.0726H214.323V63.2973C210.62 67.0941 205.852 68.9998 200.022 68.9998Z" fill="#1D376F"/>
<path d="M231.247 68.0641V3.14303L240.61 1.34032V68.0641H231.247Z" fill="#1D376F"/>
<path d="M248.137 68.0641V3.14303L257.5 1.34032V68.0641H248.137Z" fill="#1D376F"/>
<path d="M282.565 49.1202C279.107 49.1202 276.065 48.5168 273.432 47.3027C270.807 46.096 268.747 44.4109 267.259 42.255C265.772 40.099 265.028 37.5974 265.028 34.7645C265.028 30.2834 266.746 26.7662 270.19 24.2276C273.626 21.6817 278.318 20.4086 284.275 20.4086C288.983 20.4086 293.334 21.2843 297.305 23.0429V18.0174C297.305 14.6694 296.323 12.1529 294.352 10.4679C292.389 8.78289 289.511 7.93652 285.726 7.93652C283.524 7.93652 281.241 8.26037 278.876 8.90053C276.519 9.54069 273.863 10.5634 270.926 11.9688L267.468 4.98612C271.045 3.32318 274.406 2.09437 277.552 1.30704C280.691 0.519722 283.837 0.129713 286.99 0.129713C293.2 0.129713 298.004 1.58664 301.403 4.50782C304.794 7.42901 306.49 11.5862 306.49 16.9797V48.2887H297.305V44.205C295.223 45.8753 292.954 47.1114 290.515 47.9135C288.076 48.7229 285.428 49.1202 282.565 49.1202ZM273.975 34.551C273.975 36.8394 274.964 38.6863 276.935 40.099C278.906 41.5044 281.479 42.211 284.669 42.211C287.183 42.211 289.496 41.8504 291.593 41.1293C293.691 40.4155 295.602 39.2824 297.305 37.7372V29.7314C295.52 28.7013 293.631 27.9582 291.645 27.4872C289.66 27.0163 287.466 26.7808 285.071 26.7808C281.65 26.7808 278.95 27.4873 276.957 28.8853C274.972 30.2834 273.975 32.1743 273.975 34.551Z" fill="#1D376F"/>
<path d="M318.539 67.1386C316.969 67.1386 315.616 66.5794 314.486 65.4536C313.348 64.3351 312.782 62.9811 312.782 61.4065C312.782 59.8318 313.348 58.4853 314.486 57.389C315.616 56.2853 316.969 55.7333 318.539 55.7333C320.152 55.7333 321.513 56.2852 322.636 57.3816C323.752 58.4853 324.31 59.8394 324.31 61.4361C324.31 62.996 323.752 64.3351 322.636 65.4536C321.513 66.5794 320.152 67.1386 318.539 67.1386Z" fill="#1D376F"/>
<path d="M313.875 48.2771V2.84042L323.238 1.03771V48.2771H313.875Z" fill="#1D376F"/>
<path d="M330.744 48.2842V2.84756L340.114 1.05203V7.14462C341.609 4.85623 343.461 3.09772 345.67 1.86155C347.878 0.625376 350.392 0 353.211 0C355.144 0.0220745 356.743 0.294271 358 0.816701V9.11665C357.137 8.75609 356.23 8.49129 355.286 8.33677C354.349 8.17489 353.397 8.0938 352.437 8.0938C349.708 8.0938 347.283 8.82981 345.164 10.3088C343.044 11.7804 341.364 13.8994 340.114 16.6587V48.2842H330.744Z" fill="#1D376F"/>
</svg>
