<svg width="584" height="200" viewBox="0 0 584 200" fill="none" xmlns="http://www.w3.org/2000/svg">
<g clip-path="url(#clip0_150_2085)">
<path d="M0 35C0 15.67 15.67 0 35 0H549C568.33 0 584 15.67 584 35V200H35C15.67 200 0 184.33 0 165V35Z" fill="#1A1A1A"/>
<path d="M64.9163 149.984C59.0162 149.984 53.5003 149.109 48.3577 147.349C43.2259 145.59 38.7662 143.094 35 139.853L42.3189 130.991C45.8504 133.796 49.4886 135.939 53.2228 137.4C56.9677 138.861 60.7551 139.597 64.596 139.597C69.4505 139.597 73.3875 138.658 76.4069 136.771C79.4262 134.883 80.9413 132.431 80.9413 129.402C80.9413 126.917 80.0557 124.966 78.2953 123.547C76.5243 122.129 73.7609 121.148 69.984 120.593L57.5651 118.823C50.7369 117.81 45.6157 115.699 42.2123 112.478C38.8088 109.258 37.1125 104.96 37.1125 99.5749C37.1125 95.5013 38.2328 91.9074 40.4733 88.8042C42.7245 85.701 45.8611 83.2802 49.8941 81.5313C53.927 79.793 58.6213 78.9186 63.9772 78.9186C68.9917 78.9186 73.7609 79.6331 78.3059 81.0727C82.851 82.5017 87.2147 84.72 91.4183 87.7166L84.6754 96.5783C80.8772 94.0829 77.2177 92.2593 73.6862 91.0969C70.1654 89.9452 66.5912 89.3587 62.9637 89.3587C58.856 89.3587 55.538 90.2331 53.0201 91.9606C50.4915 93.6882 49.2326 95.9491 49.2326 98.7324C49.2326 101.313 50.1074 103.275 51.8678 104.63C53.6282 105.984 56.5089 106.954 60.5098 107.53L72.9181 109.3C79.725 110.217 84.8675 112.297 88.367 115.507C91.8558 118.727 93.6055 123.025 93.6055 128.389C93.6055 132.473 92.3466 136.152 89.818 139.426C87.2894 142.689 83.8859 145.27 79.5969 147.157C75.2972 149.045 70.4109 149.984 64.9163 149.984Z" fill="white"/>
<path d="M130.873 149.962C124.237 149.962 118.22 148.394 112.8 145.259C107.38 142.124 103.091 137.869 99.9436 132.494C96.7855 127.12 95.2172 121.105 95.2172 114.461C95.2172 107.796 96.7856 101.782 99.933 96.4074C103.08 91.0434 107.359 86.7778 112.789 83.632C118.209 80.4861 124.227 78.9186 130.863 78.9186C137.552 78.9186 143.591 80.4861 148.979 83.632C154.367 86.7778 158.645 91.0434 161.792 96.4074C164.95 101.782 166.529 107.796 166.529 114.461C166.529 121.105 164.951 127.12 161.803 132.494C158.645 137.869 154.377 142.124 149 145.259C143.612 148.394 137.574 149.962 130.873 149.962ZM130.873 138.157C135.077 138.157 138.875 137.101 142.279 134.99C145.682 132.889 148.381 130.031 150.366 126.448C152.35 122.854 153.343 118.845 153.343 114.398C153.343 109.961 152.34 105.962 150.344 102.401C148.339 98.8496 145.639 96.0129 142.247 93.8908C138.843 91.7793 135.056 90.7236 130.873 90.7236C126.702 90.7236 122.903 91.7793 119.511 93.8908C116.107 96.0129 113.408 98.8496 111.402 102.401C109.407 105.962 108.404 109.961 108.404 114.398C108.404 118.845 109.396 122.854 111.381 126.448C113.365 130.031 116.065 132.889 119.479 134.99C122.893 137.101 126.691 138.157 130.873 138.157Z" fill="white"/>
<path d="M176.499 148.644V54.5551L189.942 51.9425V148.644H176.499Z" fill="white"/>
<path d="M200.751 148.63V80.1776H214.194V148.63H200.751ZM207.462 69.1299C205.211 69.1299 203.269 68.3194 201.648 66.6878C200.015 65.0669 199.204 63.1045 199.204 60.8224C199.204 58.5403 200.015 56.5889 201.648 55C203.269 53.4004 205.211 52.6005 207.462 52.6005C209.777 52.6005 211.73 53.4003 213.341 54.9893C214.941 56.5889 215.742 58.5513 215.742 60.8654C215.742 63.1262 214.941 65.0669 213.341 66.6878C211.73 68.3194 209.777 69.1299 207.462 69.1299Z" fill="white"/>
<path d="M224.972 148.63V54.5422L238.415 51.5351V87.1954C243.728 81.6181 250.599 78.8349 259.027 78.8349C264.266 78.8349 268.896 79.9652 272.897 82.2259C276.898 84.4867 280.035 87.6219 282.297 91.6422C284.559 95.6625 285.689 100.333 285.689 105.665V148.63H272.353V107.958C272.353 102.562 270.817 98.2965 267.765 95.1826C264.703 92.0581 260.542 90.5012 255.261 90.5012C251.602 90.5012 248.348 91.2796 245.52 92.8365C242.682 94.3828 240.314 96.601 238.415 99.4696V148.63H224.972Z" fill="white"/>
<path d="M321.951 150C316.712 150 312.071 148.869 308.028 146.609C303.995 144.348 300.837 141.191 298.575 137.15C296.313 133.108 295.182 128.448 295.182 123.169V80.2037H308.529V120.876C308.529 126.251 310.076 130.495 313.181 133.63C316.286 136.766 320.436 138.333 325.632 138.333C329.259 138.333 332.524 137.533 335.415 135.955C338.307 134.366 340.654 132.138 342.468 129.269V80.2037H355.911V148.656H342.468V141.735C337.154 147.238 330.315 150 321.951 150Z" fill="white"/>
<path d="M366.746 148.644V54.5551L380.179 51.9425V148.644H366.746Z" fill="white"/>
<path d="M390.977 148.644V54.5551L404.41 51.9425V148.644H390.977Z" fill="white"/>
<path d="M440.367 121.189C435.406 121.189 431.042 120.314 427.265 118.555C423.499 116.806 420.544 114.364 418.41 111.239C416.276 108.115 415.209 104.489 415.209 100.383C415.209 93.889 417.674 88.7916 422.613 85.1125C427.543 81.4228 434.275 79.5778 442.821 79.5778C449.574 79.5778 455.816 80.8468 461.513 83.3955V76.1122C461.513 71.26 460.105 67.6129 457.277 65.1709C454.461 62.7288 450.332 61.5022 444.901 61.5022C441.743 61.5022 438.468 61.9716 435.075 62.8993C431.693 63.8271 427.884 65.3093 423.67 67.3461L418.709 57.2263C423.84 54.8162 428.663 53.0353 433.176 51.8943C437.678 50.7532 442.191 50.188 446.715 50.188C455.624 50.188 462.516 52.2995 467.392 56.5331C472.257 60.7667 474.689 66.7916 474.689 74.6083V119.984H461.513V114.065C458.526 116.486 455.272 118.277 451.772 119.44C448.273 120.613 444.474 121.189 440.367 121.189ZM428.044 100.074C428.044 103.39 429.463 106.067 432.29 108.115C435.118 110.151 438.809 111.175 443.386 111.175C446.992 111.175 450.31 110.653 453.319 109.608C456.328 108.573 459.07 106.931 461.513 104.692V93.089C458.952 91.5961 456.242 90.5191 453.394 89.8366C450.545 89.1541 447.398 88.8127 443.962 88.8127C439.054 88.8127 435.182 89.8366 432.322 91.8628C429.474 93.8889 428.044 96.6295 428.044 100.074Z" fill="white"/>
<path d="M491.975 147.302C489.724 147.302 487.782 146.492 486.16 144.86C484.528 143.239 483.717 141.277 483.717 138.995C483.717 136.713 484.528 134.761 486.16 133.172C487.782 131.573 489.724 130.773 491.975 130.773C494.29 130.773 496.242 131.573 497.853 133.162C499.454 134.761 500.254 136.724 500.254 139.038C500.254 141.299 499.454 143.239 497.853 144.86C496.242 146.492 494.29 147.302 491.975 147.302Z" fill="white"/>
<path d="M485.284 119.967V54.1165L498.717 51.5039V119.967H485.284Z" fill="white"/>
<path d="M509.484 119.977V54.1269L522.927 51.5247V60.3545C525.071 57.038 527.728 54.4895 530.897 52.6979C534.066 50.9063 537.672 50 541.715 50C544.489 50.032 546.783 50.4265 548.586 51.1836V63.2125C547.349 62.69 546.047 62.3062 544.692 62.0823C543.348 61.8477 541.982 61.7302 540.606 61.7302C536.69 61.7302 533.212 62.7968 530.171 64.9403C527.131 67.0731 524.719 70.1441 522.927 74.1431V119.977H509.484Z" fill="white"/>
</g>
<defs>
<clipPath id="clip0_150_2085">
<rect width="584" height="200" fill="white"/>
</clipPath>
</defs>
</svg>
